ply
format ascii 1.0
comment created by MATLAB plywrite
element vertex 811
property float x
property float y
property float z
element face 1618
property list uchar short vertex_indices
end_header
-0.000391 0.443833 0.002732 
-0.057152 0.453874 -0.014939 
-0.131098 0.480819 0.001861 
-0.196952 0.537724 0.049084 
-0.188557 0.523940 -0.014090 
-0.226185 0.576125 0.037714 
-0.222297 0.563742 0.001861 
-0.248702 0.636148 0.041116 
-0.250978 0.633212 0.001861 
-0.273562 0.781742 0.045427 
-0.276810 0.779674 0.001861 
-0.279562 0.965084 0.045122 
-0.282614 0.964036 0.001861 
-0.292896 0.972899 -0.018812 
-0.301344 0.975000 0.052546 
-0.316336 0.965618 0.050979 
-0.317564 0.969885 0.001861 
-0.320965 0.937193 0.053612 
-0.324444 0.938700 0.001861 
-0.315682 0.749820 0.052009 
-0.321210 0.760028 0.001861 
-0.287699 0.608891 0.047277 
-0.290059 0.605362 0.001861 
-0.251595 0.530661 0.021706 
-0.172267 0.447642 -0.011186 
-0.107565 0.417126 0.006286 
-0.082488 0.388487 -0.000450 
-0.066510 0.348632 -0.003417 
-0.054018 0.287099 0.007999 
-0.057994 0.232196 -0.002747 
-0.068948 0.184945 0.007332 
-0.087034 0.145550 -0.011965 
-0.105050 0.126522 0.018478 
-0.126054 0.113015 0.011732 
-0.187583 0.083898 -0.012835 
-0.258754 0.039382 0.042156 
-0.238303 0.061286 0.001861 
-0.262793 0.036847 0.001861 
-0.264591 0.025000 0.001861 
-0.085054 0.461612 0.013323 
-0.159439 0.503376 0.048101 
-0.239492 0.636148 0.079626 
-0.263372 0.781742 0.087772 
-0.269102 0.964180 0.088627 
-0.285832 0.973038 0.071081 
-0.301152 0.969996 0.098693 
-0.307767 0.941905 0.104537 
-0.303943 0.749820 0.100862 
-0.277045 0.608891 0.091812 
-0.208255 0.485208 0.050820 
-0.167086 0.446941 0.042110 
-0.091560 0.403009 0.010924 
-0.085303 0.145464 0.022468 
-0.228392 0.063266 0.057574 
-0.249199 0.039176 0.082689 
-0.257091 0.025000 0.067537 
-0.216003 0.584621 0.091284 
-0.224372 0.636148 0.116221 
-0.246683 0.781742 0.128002 
-0.252245 0.965089 0.130036 
-0.263230 0.974198 0.163548 
-0.285802 0.965474 0.146273 
-0.289237 0.937193 0.150435 
-0.284707 0.749820 0.147279 
-0.259556 0.608891 0.134131 
-0.235948 0.534417 0.098420 
-0.190847 0.485900 0.098878 
-0.107603 0.421912 0.046427 
-0.073838 0.383978 0.032745 
-0.060848 0.348628 0.027292 
-0.051571 0.300103 0.023492 
-0.109868 0.116896 0.047662 
-0.174985 0.086125 0.059791 
-0.230136 0.043525 0.118901 
-0.236313 0.026540 0.123602 
-0.140485 0.502486 0.086096 
-0.167186 0.531672 0.105613 
-0.191403 0.573175 0.125589 
-0.203712 0.636148 0.150000 
-0.223906 0.781742 0.165127 
-0.229258 0.965223 0.167807 
-0.252161 0.973817 0.156731 
-0.259498 0.965618 0.189493 
-0.262427 0.937193 0.193940 
-0.258447 0.749820 0.190113 
-0.235662 0.608891 0.173194 
-0.206501 0.533726 0.149472 
-0.146109 0.446821 0.091740 
-0.086167 0.406864 0.043266 
-0.084203 0.130824 0.056543 
-0.200967 0.063062 0.125011 
-0.212511 0.039177 0.155199 
-0.095888 0.471940 0.063387 
-0.103284 0.497027 0.120146 
-0.144914 0.541485 0.147335 
-0.165272 0.586574 0.167692 
-0.178496 0.639728 0.180917 
-0.195232 0.777652 0.197653 
-0.199513 0.963716 0.201934 
-0.207107 0.973103 0.209528 
-0.223676 0.969843 0.226097 
-0.229113 0.941561 0.231534 
-0.226193 0.754328 0.228614 
-0.209908 0.630550 0.212329 
-0.185419 0.545553 0.187840 
-0.160903 0.482278 0.138672 
-0.121055 0.446995 0.123476 
-0.049171 0.234671 0.032337 
-0.058903 0.187283 0.038300 
-0.068311 0.151806 0.051731 
-0.143606 0.083435 0.125009 
-0.151613 0.063338 0.181626 
-0.185157 0.039103 0.187578 
-0.201428 0.025000 0.174375 
-0.147579 0.636148 0.206133 
-0.162706 0.781742 0.226327 
-0.165386 0.965223 0.231679 
-0.169386 0.974643 0.259594 
-0.187072 0.965618 0.261918 
-0.191519 0.937193 0.264848 
-0.187693 0.749820 0.260867 
-0.170773 0.608891 0.238083 
-0.147051 0.533726 0.208922 
-0.125253 0.484690 0.174265 
-0.076100 0.417186 0.078521 
-0.060974 0.394122 0.062207 
-0.039490 0.299409 0.041911 
-0.043088 0.267789 0.036088 
-0.093276 0.110548 0.095697 
-0.152778 0.039177 0.214932 
-0.103192 0.531672 0.169606 
-0.123168 0.573175 0.193824 
-0.113800 0.636148 0.226792 
-0.125582 0.781742 0.249104 
-0.127615 0.965089 0.254665 
-0.154310 0.973817 0.254582 
-0.143852 0.965474 0.288222 
-0.148014 0.937193 0.291657 
-0.144858 0.749820 0.287128 
-0.131710 0.608891 0.261977 
-0.089319 0.446821 0.148530 
-0.042634 0.346149 0.052434 
-0.024531 0.275834 0.050607 
-0.032365 0.207742 0.055594 
-0.041329 0.159202 0.070282 
-0.059812 0.131275 0.082735 
-0.106152 0.063031 0.211786 
-0.118014 0.038950 0.236172 
-0.141520 0.025000 0.226607 
-0.043366 0.453511 0.041880 
-0.060521 0.486624 0.129370 
-0.064172 0.509141 0.162648 
-0.088863 0.584621 0.218424 
-0.077206 0.636148 0.241913 
-0.085351 0.781742 0.265792 
-0.086206 0.964180 0.271523 
-0.068660 0.973038 0.288252 
-0.096272 0.969996 0.303573 
-0.102116 0.941909 0.310187 
-0.098442 0.749820 0.306364 
-0.089391 0.608891 0.279466 
-0.095999 0.534417 0.238368 
-0.080893 0.485274 0.200499 
-0.043640 0.407673 0.088338 
-0.031278 0.126994 0.103072 
-0.082739 0.087377 0.164002 
-0.055153 0.063266 0.230813 
-0.080268 0.039176 0.251620 
-0.041189 0.469135 0.101383 
-0.016119 0.495645 0.155757 
-0.046663 0.537724 0.199373 
-0.035293 0.576125 0.228606 
-0.038696 0.636148 0.251122 
-0.043006 0.781742 0.275983 
-0.042701 0.965084 0.281983 
-0.048558 0.965618 0.318757 
-0.051191 0.937193 0.323386 
-0.049588 0.749820 0.318102 
-0.044857 0.608891 0.290119 
-0.039125 0.533749 0.253058 
-0.044637 0.445931 0.166302 
-0.039677 0.111231 0.126707 
-0.039736 0.039382 0.261175 
-0.065117 0.025000 0.259512 
0.000559 0.563742 0.224718 
0.000559 0.633212 0.253399 
0.000559 0.779674 0.279230 
0.000559 0.964036 0.285034 
-0.050125 0.975000 0.303764 
0.000559 0.969885 0.319985 
0.000559 0.938700 0.326865 
0.000559 0.760028 0.323630 
0.000559 0.605362 0.292480 
-0.015217 0.482278 0.212902 
-0.012488 0.447642 0.174688 
-0.024665 0.418769 0.111145 
-0.006237 0.404903 0.095570 
-0.018034 0.382015 0.080367 
-0.012097 0.342833 0.065518 
-0.003866 0.299789 0.058096 
-0.012999 0.257973 0.055753 
-0.009696 0.201881 0.066072 
-0.011376 0.155562 0.083417 
-0.013856 0.135851 0.097350 
0.010430 0.113015 0.128475 
0.000559 0.061286 0.240724 
0.000559 0.036847 0.265214 
0.000559 0.025000 0.267012 
0.016511 0.523940 0.190978 
0.036411 0.576125 0.228606 
0.039814 0.636148 0.251122 
0.044125 0.781742 0.275983 
0.043820 0.965084 0.281983 
0.021233 0.972899 0.295317 
0.055702 0.974782 0.303931 
0.049677 0.965618 0.318757 
0.052310 0.937193 0.323386 
0.050707 0.749820 0.318102 
0.045975 0.608891 0.290119 
0.020404 0.530661 0.254016 
0.010786 0.183772 0.071503 
0.000559 0.086248 0.186475 
0.040854 0.039382 0.261175 
0.000559 0.455663 0.068767 
0.014134 0.472114 0.115641 
0.051964 0.502583 0.159389 
0.065055 0.549063 0.202907 
0.078324 0.636148 0.241913 
0.086470 0.781742 0.265792 
0.087325 0.964180 0.271523 
0.091990 0.974179 0.283255 
0.097391 0.969996 0.303573 
0.103235 0.941909 0.310187 
0.099560 0.749820 0.306364 
0.090510 0.608891 0.279466 
0.049518 0.485208 0.210676 
0.040808 0.446941 0.169507 
0.025645 0.397575 0.086513 
0.011753 0.358557 0.070597 
0.014098 0.287777 0.055004 
0.005168 0.232196 0.060415 
0.021166 0.145464 0.087724 
0.032397 0.126994 0.103072 
0.056272 0.063266 0.230813 
0.081387 0.039176 0.251620 
0.066235 0.025000 0.259512 
0.089982 0.584621 0.218424 
0.114919 0.636148 0.226792 
0.126700 0.781742 0.249104 
0.128734 0.965089 0.254665 
0.162246 0.974198 0.265651 
0.144971 0.965474 0.288222 
0.149133 0.937193 0.291657 
0.145977 0.749820 0.287128 
0.132829 0.608891 0.261977 
0.097118 0.534417 0.238368 
0.097576 0.485900 0.193268 
0.031513 0.417795 0.107028 
0.033647 0.184973 0.063517 
0.107271 0.063031 0.211786 
0.119133 0.038950 0.236172 
0.040238 0.456424 0.060652 
0.060257 0.476600 0.109582 
0.104311 0.531672 0.169606 
0.124287 0.573175 0.193824 
0.148698 0.636148 0.206133 
0.163825 0.781742 0.226327 
0.166505 0.965223 0.231679 
0.155429 0.973817 0.254582 
0.188191 0.965618 0.261918 
0.192638 0.937193 0.264848 
0.188811 0.749820 0.260867 
0.171892 0.608891 0.238083 
0.148170 0.533726 0.208922 
0.090438 0.446821 0.148530 
0.074732 0.411814 0.069496 
0.050927 0.407704 0.084375 
0.035284 0.348628 0.058535 
0.046892 0.144073 0.078042 
0.065803 0.136763 0.069737 
0.060984 0.110804 0.119328 
0.083858 0.087377 0.164002 
0.153897 0.039177 0.214932 
0.142639 0.025000 0.226607 
0.104403 0.497027 0.120146 
0.146033 0.541485 0.147335 
0.166390 0.586574 0.167692 
0.179615 0.639723 0.180917 
0.196351 0.777652 0.197653 
0.200632 0.963716 0.201934 
0.208226 0.973103 0.209528 
0.224795 0.969843 0.226097 
0.230232 0.941561 0.231534 
0.227312 0.754328 0.228614 
0.211027 0.630550 0.212329 
0.186538 0.545553 0.187840 
0.137370 0.482278 0.163324 
0.122174 0.446995 0.123476 
0.032939 0.287753 0.046428 
0.152732 0.063338 0.181626 
0.186276 0.039103 0.187578 
0.204831 0.636148 0.150000 
0.225025 0.781742 0.165127 
0.230377 0.965223 0.167807 
0.258292 0.974643 0.171807 
0.260616 0.965618 0.189493 
0.263546 0.937193 0.193940 
0.259565 0.749820 0.190113 
0.236781 0.608891 0.173194 
0.207620 0.533726 0.149472 
0.172963 0.484690 0.127674 
0.089462 0.417338 0.064373 
0.057297 0.382628 0.058599 
0.038439 0.234671 0.046213 
0.090999 0.117032 0.079535 
0.144725 0.083434 0.125009 
0.213630 0.039177 0.155199 
0.202547 0.025000 0.174376 
0.097006 0.471940 0.063387 
0.168304 0.531672 0.105613 
0.192522 0.573175 0.125589 
0.225490 0.636148 0.116221 
0.247802 0.781742 0.128002 
0.253363 0.965089 0.130036 
0.253280 0.973817 0.156731 
0.286920 0.965474 0.146273 
0.290355 0.937193 0.150435 
0.285826 0.749820 0.147279 
0.260675 0.608891 0.134131 
0.147228 0.446821 0.091740 
0.076740 0.144073 0.048194 
0.202086 0.063062 0.125011 
0.234870 0.038950 0.120435 
0.156888 0.508854 0.077630 
0.217122 0.584621 0.091284 
0.240611 0.636148 0.079626 
0.264490 0.781742 0.087772 
0.270221 0.964180 0.088627 
0.286950 0.973038 0.071081 
0.302462 0.975000 0.052546 
0.302271 0.969996 0.098693 
0.308885 0.941905 0.104537 
0.305062 0.749820 0.100862 
0.278164 0.608891 0.091812 
0.237066 0.534417 0.098420 
0.199197 0.485274 0.083314 
0.080134 0.394582 0.034709 
0.057267 0.346149 0.036612 
0.051070 0.299934 0.027636 
0.051125 0.245482 0.025578 
0.060022 0.187283 0.038300 
0.110987 0.116896 0.047662 
0.172255 0.085134 0.073763 
0.229511 0.063266 0.057575 
0.250318 0.039176 0.082689 
0.244764 0.025000 0.107034 
0.198071 0.537724 0.049084 
0.227304 0.576125 0.037714 
0.249820 0.636148 0.041116 
0.274681 0.781742 0.045427 
0.280681 0.965084 0.045122 
0.317455 0.965618 0.050979 
0.322084 0.937193 0.053612 
0.316800 0.749820 0.052009 
0.288817 0.608891 0.047277 
0.251756 0.533749 0.041546 
0.165000 0.445931 0.047057 
0.083607 0.388487 -0.000450 
0.086422 0.145464 0.022468 
0.116187 0.118713 0.016232 
0.259873 0.039382 0.042157 
0.062990 0.455402 0.022260 
0.104659 0.468359 0.014858 
0.147419 0.490901 0.023503 
0.223416 0.563742 0.001861 
0.252097 0.633212 0.001861 
0.277928 0.779674 0.001861 
0.283732 0.964036 0.001861 
0.318683 0.969885 0.001861 
0.325563 0.938700 0.001861 
0.322328 0.760028 0.001861 
0.291178 0.605362 0.001861 
0.211600 0.482278 0.017638 
0.173386 0.447642 0.014909 
0.107160 0.417298 0.026123 
0.094268 0.404903 0.008658 
0.066742 0.348364 0.007070 
0.055137 0.287099 0.007999 
0.058287 0.232997 0.006405 
0.070067 0.184945 0.007332 
0.188702 0.083898 0.016558 
0.239422 0.061286 0.001861 
0.263912 0.036847 0.001861 
0.265935 0.025000 0.022747 
0.198071 0.537724 -0.045361 
0.227304 0.576125 -0.033991 
0.249820 0.636148 -0.037394 
0.274681 0.781742 -0.041704 
0.280681 0.965084 -0.041399 
0.294015 0.972899 -0.018812 
0.302629 0.974782 -0.053281 
0.317455 0.965618 -0.047256 
0.322084 0.937193 -0.049889 
0.316800 0.749820 -0.048286 
0.288817 0.608891 -0.043554 
0.252713 0.530661 -0.017984 
0.086171 0.149583 -0.004653 
0.096048 0.135851 -0.012554 
0.255808 0.043997 -0.038078 
0.263622 0.025856 -0.040839 
0.130728 0.482718 -0.031071 
0.178504 0.514373 -0.028168 
0.240611 0.636148 -0.075904 
0.264490 0.781742 -0.084049 
0.270221 0.964180 -0.084904 
0.281953 0.974179 -0.089569 
0.302271 0.969996 -0.094970 
0.308885 0.941905 -0.100814 
0.305062 0.749820 -0.097140 
0.278164 0.608891 -0.088089 
0.209374 0.485208 -0.047097 
0.168205 0.446941 -0.038387 
0.074094 0.166611 -0.021773 
0.101770 0.126994 -0.029976 
0.229511 0.063266 -0.053852 
0.250318 0.039176 -0.078966 
0.051609 0.452406 -0.016160 
0.217122 0.584621 -0.087561 
0.225490 0.636148 -0.112498 
0.247802 0.781742 -0.124280 
0.253363 0.965089 -0.126313 
0.286920 0.965474 -0.142550 
0.290355 0.937193 -0.146712 
0.285826 0.749820 -0.143556 
0.260675 0.608891 -0.130408 
0.237066 0.534417 -0.094697 
0.109454 0.420162 -0.032270 
0.093158 0.407807 -0.027578 
0.074956 0.383978 -0.029023 
0.063506 0.348424 -0.020061 
0.051844 0.265114 -0.017983 
0.060695 0.208126 -0.017714 
0.125405 0.111231 -0.038375 
0.176104 0.086125 -0.056068 
0.234870 0.038950 -0.116713 
0.244764 0.025000 -0.103311 
0.168304 0.531672 -0.101890 
0.192522 0.573175 -0.121866 
0.204831 0.636148 -0.146277 
0.225025 0.781742 -0.161404 
0.230377 0.965223 -0.164084 
0.253280 0.973817 -0.153008 
0.260616 0.965618 -0.185770 
0.263546 0.937193 -0.190217 
0.259565 0.749820 -0.186391 
0.236781 0.608891 -0.169471 
0.207620 0.533726 -0.145749 
0.182622 0.484004 -0.109707 
0.147228 0.446821 -0.088017 
0.053564 0.305804 -0.021135 
0.076740 0.144073 -0.044471 
0.090999 0.117032 -0.075812 
0.202086 0.063062 -0.121288 
0.213630 0.039177 -0.151476 
0.091982 0.467511 -0.048238 
0.126303 0.493122 -0.084072 
0.108443 0.505320 -0.126856 
0.146033 0.541485 -0.143612 
0.166390 0.586574 -0.163970 
0.179615 0.639723 -0.177194 
0.196351 0.777652 -0.193930 
0.200632 0.963716 -0.198211 
0.208226 0.973103 -0.205805 
0.224795 0.969843 -0.222374 
0.230232 0.941561 -0.227811 
0.227312 0.754328 -0.224891 
0.211027 0.630550 -0.208606 
0.186538 0.545553 -0.184117 
0.122174 0.446995 -0.119753 
0.089462 0.417338 -0.060650 
0.051159 0.348882 -0.041355 
0.053699 0.184476 -0.043525 
0.144725 0.083434 -0.121286 
0.152732 0.063338 -0.177903 
0.186276 0.039103 -0.183855 
0.202547 0.025000 -0.170653 
0.148698 0.636148 -0.202410 
0.163825 0.781742 -0.222604 
0.166505 0.965223 -0.227956 
0.258292 0.974643 -0.168084 
0.188191 0.965618 -0.258196 
0.192638 0.937193 -0.261125 
0.188811 0.749820 -0.257145 
0.171892 0.608891 -0.234360 
0.148170 0.533726 -0.205199 
0.137370 0.482278 -0.159601 
0.074732 0.411814 -0.065773 
0.057297 0.382628 -0.054876 
0.065803 0.136763 -0.066014 
0.153897 0.039177 -0.211209 
0.047691 0.461066 -0.068586 
0.060257 0.476600 -0.105859 
0.104311 0.531672 -0.165884 
0.124287 0.573175 -0.190101 
0.114919 0.636148 -0.223070 
0.126700 0.781742 -0.245381 
0.128734 0.965089 -0.250943 
0.155429 0.973817 -0.250859 
0.162246 0.974198 -0.261928 
0.144971 0.965474 -0.284500 
0.149133 0.937193 -0.287935 
0.145977 0.749820 -0.283405 
0.132829 0.608891 -0.258254 
0.097576 0.485900 -0.189545 
0.090438 0.446821 -0.144807 
0.050927 0.407704 -0.080652 
0.033053 0.310204 -0.046777 
0.033405 0.277300 -0.042248 
0.038439 0.234671 -0.042490 
0.046892 0.144073 -0.074319 
0.107271 0.063031 -0.208064 
0.119133 0.038950 -0.232449 
0.142639 0.025000 -0.222884 
0.022962 0.449631 -0.030180 
0.051964 0.502583 -0.155666 
0.065055 0.549063 -0.199184 
0.089982 0.584621 -0.214701 
0.078324 0.636148 -0.238190 
0.086470 0.781742 -0.262070 
0.087325 0.964180 -0.267800 
0.091990 0.974179 -0.279533 
0.097391 0.969996 -0.299850 
0.103235 0.941909 -0.306465 
0.099560 0.749820 -0.302641 
0.090510 0.608891 -0.275743 
0.097118 0.534417 -0.234646 
0.022902 0.407711 -0.092382 
0.031443 0.383978 -0.072536 
0.030410 0.349542 -0.058260 
0.018202 0.299894 -0.051905 
0.033647 0.184973 -0.059795 
0.032397 0.126994 -0.099349 
0.060984 0.110804 -0.115606 
0.083858 0.087377 -0.160279 
0.056272 0.063266 -0.227090 
0.081387 0.039176 -0.247897 
0.016511 0.523940 -0.187255 
0.036411 0.576125 -0.224883 
0.039814 0.636148 -0.247400 
0.044125 0.781742 -0.272260 
0.043820 0.965084 -0.278260 
0.021233 0.972899 -0.291595 
0.055702 0.974782 -0.300209 
0.049677 0.965618 -0.315034 
0.052310 0.937193 -0.319664 
0.050707 0.749820 -0.314380 
0.045975 0.608891 -0.286397 
0.049518 0.485208 -0.206953 
0.040808 0.446941 -0.165784 
-0.002380 0.406488 -0.093825 
0.021166 0.145464 -0.084001 
0.040854 0.039382 -0.257452 
0.066235 0.025000 -0.255789 
0.014134 0.472114 -0.111918 
0.000559 0.563742 -0.220995 
0.000559 0.633212 -0.249676 
0.000559 0.779674 -0.275508 
0.000559 0.964036 -0.281312 
0.000559 0.965942 -0.318105 
0.000559 0.938700 -0.323142 
0.000559 0.760028 -0.319908 
0.000559 0.605362 -0.288757 
0.020404 0.530661 -0.250293 
0.025784 0.418769 -0.107422 
0.012297 0.245641 -0.052706 
0.010786 0.183772 -0.067780 
-0.013856 0.135851 -0.093627 
0.010430 0.113015 -0.124752 
0.000559 0.061286 -0.237001 
0.000559 0.036847 -0.261491 
0.000559 0.025000 -0.263289 
-0.016119 0.495645 -0.152035 
-0.046663 0.537724 -0.195650 
-0.035293 0.576125 -0.224883 
-0.038696 0.636148 -0.247400 
-0.043006 0.781742 -0.272260 
-0.042701 0.965084 -0.278260 
-0.018190 0.974884 -0.305627 
-0.048558 0.965618 -0.315034 
-0.051191 0.937193 -0.319664 
-0.049588 0.749820 -0.314380 
-0.044857 0.608891 -0.286397 
-0.039125 0.533749 -0.249336 
-0.015217 0.482278 -0.209179 
-0.012488 0.447642 -0.170965 
-0.006342 0.388748 -0.080751 
-0.008820 0.219633 -0.057593 
0.000559 0.086248 -0.182752 
-0.039736 0.039382 -0.257452 
0.000559 0.455663 -0.065044 
-0.064172 0.509141 -0.158925 
-0.077206 0.636148 -0.238190 
-0.085351 0.781742 -0.262070 
-0.086206 0.964180 -0.267800 
-0.068660 0.973038 -0.284530 
-0.135902 0.975000 -0.272422 
-0.096272 0.969996 -0.299850 
-0.102116 0.941909 -0.306465 
-0.098442 0.749820 -0.302641 
-0.089391 0.608891 -0.275743 
-0.044637 0.445931 -0.162579 
-0.004719 0.348632 -0.065208 
-0.003896 0.289121 -0.053543 
-0.011376 0.155562 -0.079694 
-0.031278 0.126994 -0.099349 
-0.055153 0.063266 -0.227090 
-0.080268 0.039176 -0.247897 
-0.065117 0.025000 -0.255789 
-0.088863 0.584621 -0.214701 
-0.113800 0.636148 -0.223070 
-0.125582 0.781742 -0.245381 
-0.127615 0.965089 -0.250943 
-0.143852 0.965474 -0.284500 
-0.148014 0.937193 -0.287935 
-0.144858 0.749820 -0.283405 
-0.131710 0.608891 -0.258254 
-0.095999 0.534417 -0.234646 
-0.080893 0.485274 -0.196776 
-0.029755 0.417499 -0.102936 
-0.032288 0.394582 -0.077713 
-0.039677 0.111231 -0.122984 
-0.106152 0.063031 -0.208064 
-0.118014 0.038950 -0.232449 
-0.041189 0.469135 -0.097660 
-0.060521 0.486624 -0.125647 
-0.103192 0.531672 -0.165884 
-0.123168 0.573175 -0.190101 
-0.147579 0.636148 -0.202410 
-0.162706 0.781742 -0.222604 
-0.165386 0.965223 -0.227956 
-0.154310 0.973817 -0.250859 
-0.187072 0.965618 -0.258196 
-0.191519 0.937193 -0.261125 
-0.187693 0.749820 -0.257145 
-0.170773 0.608891 -0.234360 
-0.147051 0.533726 -0.205199 
-0.125253 0.484690 -0.170542 
-0.089319 0.446821 -0.144807 
-0.040508 0.375613 -0.062102 
-0.027813 0.324763 -0.051788 
-0.026977 0.269436 -0.045081 
-0.032365 0.207742 -0.051871 
-0.041329 0.159202 -0.066559 
-0.059812 0.131275 -0.079012 
-0.082739 0.087377 -0.160279 
-0.152778 0.039177 -0.211209 
-0.141520 0.025000 -0.222884 
-0.033920 0.454273 -0.048340 
-0.107324 0.505320 -0.126856 
-0.144914 0.541485 -0.143612 
-0.165272 0.586574 -0.163970 
-0.178496 0.639728 -0.177194 
-0.195232 0.777652 -0.193930 
-0.199513 0.963716 -0.198211 
-0.207107 0.973103 -0.205805 
-0.185306 0.974791 -0.242509 
-0.223676 0.969843 -0.222374 
-0.229113 0.941561 -0.227811 
-0.226193 0.754328 -0.224891 
-0.209908 0.630550 -0.208606 
-0.185419 0.545553 -0.184117 
-0.121055 0.446995 -0.119753 
-0.056798 0.407563 -0.076043 
-0.151613 0.063338 -0.177903 
-0.185157 0.039103 -0.183855 
-0.203712 0.636148 -0.146277 
-0.223906 0.781742 -0.161404 
-0.229258 0.965223 -0.164084 
-0.260198 0.974597 -0.162313 
-0.259498 0.965618 -0.185770 
-0.262427 0.937193 -0.190217 
-0.258447 0.749820 -0.186391 
-0.235662 0.608891 -0.169471 
-0.206501 0.533726 -0.145749 
-0.160903 0.482278 -0.134949 
-0.082419 0.421749 -0.081117 
-0.064870 0.394793 -0.054339 
-0.042388 0.300429 -0.034819 
-0.052581 0.184476 -0.043525 
-0.093276 0.110548 -0.091974 
-0.143606 0.083435 -0.121286 
-0.212511 0.039177 -0.151476 
-0.201428 0.025000 -0.170652 
-0.125185 0.493122 -0.084072 
-0.167186 0.531672 -0.101890 
-0.191403 0.573175 -0.121866 
-0.224372 0.636148 -0.112498 
-0.246683 0.781742 -0.124280 
-0.252245 0.965089 -0.126313 
-0.252161 0.973817 -0.153008 
-0.285514 0.966202 -0.142684 
-0.289237 0.937193 -0.146712 
-0.284707 0.749820 -0.143556 
-0.259556 0.608891 -0.130408 
-0.146109 0.446821 -0.088017 
-0.086167 0.406864 -0.039543 
-0.051575 0.341643 -0.036171 
-0.043225 0.271267 -0.031890 
-0.046452 0.233495 -0.032294 
-0.068311 0.151806 -0.048008 
-0.084203 0.130824 -0.052820 
-0.200967 0.063062 -0.121288 
-0.230136 0.043525 -0.115178 
-0.236133 0.027566 -0.119638 
-0.090863 0.467511 -0.048238 
-0.149107 0.494560 -0.031976 
-0.187252 0.530266 -0.056812 
-0.216003 0.584621 -0.087561 
-0.239492 0.636148 -0.075904 
-0.263372 0.781742 -0.084049 
-0.269102 0.964180 -0.084904 
-0.280834 0.974179 -0.089569 
-0.301152 0.969996 -0.094970 
-0.307767 0.941905 -0.100814 
-0.303943 0.749820 -0.097140 
-0.277045 0.608891 -0.088089 
-0.235948 0.534417 -0.094697 
-0.198078 0.485274 -0.079591 
-0.073838 0.383978 -0.029023 
-0.100651 0.126994 -0.029976 
-0.171137 0.085134 -0.070040 
-0.228392 0.063266 -0.053851 
-0.249199 0.039176 -0.078966 
-0.226185 0.576125 -0.033991 
-0.248702 0.636148 -0.037394 
-0.273562 0.781742 -0.041704 
-0.279562 0.965084 -0.041399 
-0.301511 0.974782 -0.053281 
-0.316336 0.965618 -0.047256 
-0.320965 0.937193 -0.049889 
-0.315682 0.749820 -0.048286 
-0.287699 0.608891 -0.043555 
-0.250638 0.533749 -0.037823 
-0.210481 0.482278 -0.013915 
-0.163881 0.445931 -0.043335 
-0.104608 0.417795 -0.029092 
-0.052583 0.287777 -0.011678 
-0.066000 0.185153 -0.019821 
-0.124286 0.111231 -0.038375 
-0.258754 0.039382 -0.038434 
-0.257091 0.025000 -0.063815 
-0.048370 0.025000 0.193814 
-0.037643 0.025000 -0.014591 
0.008933 0.025000 -0.030987 
0.033397 0.025000 0.005612 
-0.199305 0.025000 -0.077673 
-0.161104 0.025000 -0.094126 
-0.128266 0.025000 -0.097876 
-0.095428 0.025000 -0.094126 
-0.085039 0.025770 -0.066093 
-0.067596 0.025000 -0.040707 
0.066235 0.025000 0.001862 
0.104437 0.025000 0.018314 
0.134391 0.025000 0.044429 
0.155499 0.025000 0.078100 
0.193702 0.025000 0.061648 
0.223655 0.025000 0.035533 
0.049816 0.025000 -0.125089 
0.066235 0.025000 -0.126964 
-0.089581 0.025000 0.106008 
0.104437 0.025000 -0.110511 
0.123538 0.025000 -0.102285 
0.168469 0.025000 -0.063112 
0.014296 0.025000 -0.135190 
0.037584 0.025000 -0.143388 
-0.321088 0.848611 0.027737 
-0.312454 0.843506 0.077237 
-0.276752 0.974409 0.104638 
-0.282287 0.974599 0.108047 
-0.296237 0.845863 0.125908 
-0.216308 0.974420 0.211571 
-0.210773 0.974230 0.208162 
-0.273842 0.843506 0.170274 
-0.244310 0.845760 0.211277 
-0.208856 0.845760 0.246731 
-0.167854 0.843506 0.276262 
0.322206 0.848611 -0.024014 
0.313573 0.843506 -0.073514 
0.280461 0.974712 -0.110683 
0.297356 0.845863 -0.122185 
0.274960 0.843506 -0.166552 
0.245429 0.845760 -0.207554 
0.206860 0.974230 -0.209471 
0.210269 0.974420 -0.215006 
0.209975 0.845760 -0.243008 
0.168972 0.843506 -0.272540 
-0.229259 0.025000 -0.051558 
-0.176259 0.025000 -0.013294 
-0.009402 0.025385 -0.160941 
-0.014596 0.025000 -0.174957 
-0.000681 0.025000 -0.148248 
0.219233 0.025000 -0.020831 
0.200132 0.025000 -0.012605 
0.233084 0.025428 0.066768 
0.016978 0.025000 0.136312 
-0.160676 0.026155 0.028754 
-0.151955 0.025770 0.041448 
-0.134512 0.025000 0.066834 
-0.119535 0.025000 0.079892 
0.049816 0.025000 0.132562 
0.153492 0.025000 -0.076170 
3 773 562 774 
3 751 183 148 
3 753 774 767 
3 207 183 751 
3 2 4 40 
3 3 40 4 
3 4 6 3 
3 6 5 3 
3 8 7 5 
3 6 8 5 
3 10 9 7 
3 8 10 7 
3 12 11 9 
3 10 12 9 
3 12 13 11 
3 44 11 13 
3 13 14 44 
3 15 14 16 
3 16 18 15 
3 18 17 15 
3 18 20 775 
3 19 17 775 
3 21 19 20 
3 20 22 21 
3 23 21 22 
3 23 743 49 
3 50 49 743 
3 743 24 50 
3 24 25 50 
3 31 52 30 
3 31 32 52 
3 34 72 33 
3 34 36 72 
3 53 72 36 
3 35 53 36 
3 36 37 35 
3 38 55 35 
3 37 38 35 
3 0 1 149 
3 1 39 149 
3 39 2 92 
3 40 92 2 
3 5 56 3 
3 7 41 56 
3 5 7 56 
3 9 42 41 
3 7 9 41 
3 11 43 42 
3 9 11 42 
3 11 44 43 
3 14 15 45 
3 15 46 45 
3 15 17 46 
3 47 46 776 
3 17 19 776 
3 48 47 19 
3 19 21 48 
3 65 48 21 
3 21 23 65 
3 49 65 23 
3 50 25 67 
3 25 51 67 
3 68 88 51 
3 51 26 68 
3 69 68 26 
3 26 27 69 
3 70 69 27 
3 27 28 70 
3 29 107 28 
3 30 108 107 
3 29 30 107 
3 30 52 108 
3 32 33 71 
3 33 72 71 
3 35 54 53 
3 35 55 54 
3 149 39 92 
3 75 92 40 
3 40 76 75 
3 40 3 76 
3 3 77 76 
3 3 56 77 
3 41 57 56 
3 42 58 57 
3 41 42 57 
3 43 59 58 
3 42 43 58 
3 43 44 59 
3 44 81 59 
3 44 14 777 
3 14 778 777 
3 14 45 778 
3 61 60 45 
3 45 46 61 
3 46 62 61 
3 63 62 779 
3 46 47 779 
3 64 63 47 
3 47 48 64 
3 65 64 48 
3 65 49 66 
3 50 87 66 
3 49 50 66 
3 67 87 50 
3 51 88 67 
3 70 28 127 
3 28 107 127 
3 52 109 108 
3 52 89 109 
3 52 32 89 
3 71 89 32 
3 72 53 90 
3 54 73 90 
3 53 54 90 
3 54 74 73 
3 54 55 74 
3 57 78 77 
3 56 57 77 
3 58 79 78 
3 57 58 78 
3 59 80 79 
3 58 59 79 
3 59 81 80 
3 117 781 780 
3 60 61 82 
3 62 83 82 
3 61 62 82 
3 84 83 782 
3 62 63 782 
3 85 84 63 
3 63 64 85 
3 86 85 64 
3 64 65 86 
3 66 105 86 
3 65 66 86 
3 66 87 105 
3 87 67 124 
3 67 88 124 
3 88 68 125 
3 141 125 68 
3 68 69 141 
3 126 141 69 
3 69 70 126 
3 127 126 70 
3 128 89 71 
3 72 110 128 
3 71 72 128 
3 90 110 72 
3 90 73 91 
3 73 74 91 
3 74 113 91 
3 92 75 93 
3 76 94 93 
3 75 76 93 
3 76 77 94 
3 77 95 94 
3 78 96 95 
3 77 78 95 
3 79 97 96 
3 78 79 96 
3 79 98 97 
3 79 80 98 
3 80 99 98 
3 80 81 99 
3 117 99 781 
3 60 100 780 
3 60 82 100 
3 82 101 100 
3 82 83 101 
3 102 101 783 
3 83 84 783 
3 103 102 84 
3 84 85 103 
3 104 103 85 
3 85 86 104 
3 86 105 104 
3 105 87 106 
3 87 124 106 
3 88 125 124 
3 145 109 89 
3 111 110 90 
3 112 111 90 
3 90 91 112 
3 91 113 112 
3 149 92 168 
3 93 150 168 
3 92 93 168 
3 93 94 130 
3 94 131 130 
3 94 95 131 
3 114 131 95 
3 95 96 114 
3 115 114 96 
3 96 97 115 
3 97 98 115 
3 116 115 98 
3 98 99 116 
3 99 135 116 
3 99 117 135 
3 118 117 100 
3 100 101 118 
3 119 118 101 
3 102 120 784 
3 101 102 784 
3 103 121 120 
3 102 103 120 
3 103 104 121 
3 104 122 121 
3 123 122 104 
3 104 105 123 
3 106 140 123 
3 105 106 123 
3 124 140 106 
3 124 125 163 
3 127 142 126 
3 143 127 107 
3 107 108 143 
3 144 143 108 
3 108 109 144 
3 145 144 109 
3 128 145 89 
3 128 110 165 
3 110 111 165 
3 112 129 111 
3 148 129 112 
3 112 113 148 
3 150 93 151 
3 130 151 93 
3 132 152 131 
3 131 114 132 
3 133 132 114 
3 114 115 133 
3 134 133 115 
3 115 116 134 
3 135 134 116 
3 118 136 117 
3 137 136 118 
3 118 119 137 
3 120 138 785 
3 119 120 785 
3 121 139 138 
3 120 121 138 
3 122 161 139 
3 121 122 139 
3 162 161 122 
3 122 123 162 
3 140 162 123 
3 124 195 140 
3 163 195 124 
3 125 197 163 
3 125 141 197 
3 126 198 141 
3 126 142 198 
3 142 127 200 
3 143 200 127 
3 128 181 164 
3 145 128 164 
3 165 181 128 
3 111 146 165 
3 129 147 146 
3 111 129 146 
3 148 147 129 
3 149 168 223 
3 130 170 151 
3 130 131 170 
3 152 170 131 
3 152 132 153 
3 154 153 132 
3 132 133 154 
3 155 154 133 
3 133 134 155 
3 134 156 155 
3 134 135 156 
3 135 188 156 
3 135 117 188 
3 117 157 188 
3 117 136 157 
3 158 157 136 
3 136 137 158 
3 138 159 158 
3 137 138 158 
3 139 160 159 
3 138 139 159 
3 139 161 160 
3 162 140 180 
3 140 195 180 
3 141 198 197 
3 200 143 201 
3 202 201 143 
3 143 144 202 
3 203 202 144 
3 144 145 203 
3 164 203 145 
3 146 166 165 
3 167 166 146 
3 146 147 167 
3 183 167 147 
3 147 148 183 
3 149 223 0 
3 150 169 168 
3 150 151 169 
3 170 169 151 
3 170 152 171 
3 172 171 152 
3 152 153 172 
3 173 172 153 
3 153 154 173 
3 174 173 154 
3 154 155 174 
3 155 156 174 
3 175 188 157 
3 157 158 175 
3 176 175 158 
3 159 177 176 
3 158 159 176 
3 160 178 177 
3 159 160 177 
3 161 179 178 
3 160 161 178 
3 162 193 179 
3 161 162 179 
3 194 193 162 
3 162 180 194 
3 163 196 195 
3 163 197 196 
3 198 142 199 
3 142 200 199 
3 200 201 240 
3 181 165 221 
3 165 166 221 
3 166 167 182 
3 183 182 167 
3 223 168 224 
3 168 169 224 
3 169 170 208 
3 170 184 208 
3 170 171 184 
3 171 172 185 
3 171 185 184 
3 186 185 172 
3 172 173 186 
3 187 186 173 
3 173 174 187 
3 174 213 187 
3 174 156 213 
3 156 188 213 
3 188 175 189 
3 190 189 175 
3 175 176 190 
3 176 191 190 
3 176 177 191 
3 191 177 178 
3 178 192 191 
3 179 219 192 
3 178 179 192 
3 179 193 219 
3 195 194 180 
3 198 238 197 
3 201 202 220 
3 164 204 203 
3 164 181 204 
3 221 204 181 
3 221 166 205 
3 166 182 205 
3 206 205 182 
3 207 206 182 
3 182 183 207 
3 169 225 224 
3 169 208 225 
3 184 209 208 
3 185 210 209 
3 184 185 209 
3 186 211 210 
3 185 186 210 
3 187 212 211 
3 186 187 211 
3 187 213 212 
3 214 213 188 
3 188 189 214 
3 215 214 189 
3 189 190 215 
3 190 216 215 
3 190 191 216 
3 217 216 191 
3 218 217 191 
3 191 192 218 
3 192 219 218 
3 219 193 235 
3 193 194 236 
3 193 236 235 
3 195 257 236 
3 194 195 236 
3 195 196 257 
3 196 237 257 
3 196 197 237 
3 238 237 197 
3 239 238 198 
3 198 199 239 
3 199 200 239 
3 200 240 239 
3 201 220 240 
3 202 241 220 
3 202 203 241 
3 242 241 203 
3 203 204 242 
3 243 221 205 
3 222 243 205 
3 205 206 222 
3 222 206 207 
3 207 245 222 
3 0 223 261 
3 225 262 224 
3 208 226 225 
3 208 209 226 
3 209 246 226 
3 210 227 246 
3 209 210 246 
3 211 228 227 
3 210 211 227 
3 212 229 228 
3 211 212 228 
3 212 230 229 
3 212 213 230 
3 213 214 230 
3 214 215 231 
3 215 232 231 
3 215 216 232 
3 233 232 216 
3 216 217 233 
3 234 233 217 
3 217 218 234 
3 255 234 218 
3 218 219 255 
3 235 255 219 
3 220 241 258 
3 204 280 242 
3 221 281 280 
3 204 221 280 
3 221 243 281 
3 222 244 243 
3 222 245 244 
3 223 224 261 
3 224 262 261 
3 225 226 263 
3 226 264 263 
3 226 246 264 
3 227 247 246 
3 228 248 247 
3 227 228 247 
3 229 249 248 
3 228 229 248 
3 229 230 249 
3 230 268 249 
3 250 268 230 
3 230 214 250 
3 214 231 250 
3 251 250 231 
3 231 232 251 
3 232 252 251 
3 253 252 232 
3 232 233 253 
3 254 253 233 
3 233 234 254 
3 255 254 234 
3 255 235 256 
3 236 274 256 
3 235 236 256 
3 257 274 236 
3 257 237 276 
3 237 238 277 
3 298 277 238 
3 238 239 298 
3 240 313 298 
3 239 240 298 
3 220 258 313 
3 240 220 313 
3 241 278 258 
3 241 242 278 
3 281 243 259 
3 244 260 259 
3 243 244 259 
3 245 283 260 
3 244 245 260 
3 225 284 262 
3 225 263 284 
3 247 265 264 
3 246 247 264 
3 248 266 265 
3 247 248 265 
3 249 267 266 
3 248 249 266 
3 249 268 267 
3 268 250 304 
3 250 251 269 
3 252 270 269 
3 251 252 269 
3 271 270 252 
3 252 253 271 
3 272 271 253 
3 253 254 272 
3 273 272 254 
3 254 255 273 
3 256 296 273 
3 255 256 273 
3 256 274 296 
3 274 257 275 
3 257 276 275 
3 276 237 312 
3 277 312 237 
3 278 242 279 
3 280 279 242 
3 281 259 299 
3 282 299 259 
3 259 260 282 
3 260 283 282 
3 261 262 318 
3 284 318 262 
3 263 285 284 
3 263 264 285 
3 264 286 285 
3 265 287 286 
3 264 265 286 
3 266 288 287 
3 265 266 287 
3 266 289 288 
3 266 267 289 
3 267 290 289 
3 267 268 290 
3 304 290 268 
3 250 291 304 
3 250 269 291 
3 269 292 291 
3 269 270 292 
3 293 292 270 
3 270 271 293 
3 294 293 271 
3 271 272 294 
3 295 294 272 
3 272 273 295 
3 273 296 295 
3 296 274 297 
3 275 311 297 
3 274 275 297 
3 312 275 276 
3 312 277 347 
3 298 347 277 
3 258 350 313 
3 278 279 350 
3 258 278 350 
3 279 280 314 
3 281 315 314 
3 280 281 314 
3 281 299 315 
3 299 282 300 
3 283 317 300 
3 282 283 300 
3 318 371 261 
3 284 333 318 
3 319 333 284 
3 284 285 319 
3 285 320 319 
3 285 286 320 
3 301 320 286 
3 286 287 301 
3 302 301 287 
3 287 288 302 
3 288 289 302 
3 303 302 289 
3 289 290 303 
3 290 324 303 
3 290 304 324 
3 305 304 291 
3 291 292 305 
3 306 305 292 
3 293 307 306 
3 292 293 306 
3 294 308 307 
3 293 294 307 
3 294 295 308 
3 295 309 308 
3 310 309 295 
3 295 296 310 
3 297 329 310 
3 296 297 310 
3 311 329 297 
3 298 348 347 
3 298 349 348 
3 313 349 298 
3 350 279 330 
3 314 330 279 
3 315 299 331 
3 300 316 331 
3 299 300 331 
3 317 316 300 
3 261 371 0 
3 321 334 320 
3 320 301 321 
3 322 321 301 
3 301 302 322 
3 323 322 302 
3 302 303 323 
3 324 323 303 
3 305 325 304 
3 326 325 305 
3 305 306 326 
3 307 327 326 
3 306 307 326 
3 308 328 327 
3 307 308 327 
3 309 344 328 
3 308 309 328 
3 345 344 309 
3 309 310 345 
3 329 345 310 
3 311 384 329 
3 275 346 311 
3 275 312 346 
3 312 347 346 
3 350 349 313 
3 314 351 330 
3 352 351 314 
3 314 315 352 
3 315 331 352 
3 316 332 331 
3 355 332 316 
3 316 317 355 
3 318 372 371 
3 318 333 373 
3 319 356 333 
3 319 320 356 
3 334 356 320 
3 334 321 335 
3 336 335 321 
3 321 322 336 
3 337 336 322 
3 322 323 337 
3 323 338 337 
3 323 324 338 
3 324 339 338 
3 324 304 339 
3 304 340 339 
3 304 325 340 
3 341 340 325 
3 325 326 341 
3 327 342 341 
3 326 327 341 
3 328 343 342 
3 327 328 342 
3 328 344 343 
3 345 329 366 
3 329 384 366 
3 346 384 311 
3 349 387 348 
3 350 330 368 
3 369 368 330 
3 330 351 369 
3 331 353 352 
3 354 353 331 
3 331 332 354 
3 355 354 332 
3 318 373 372 
3 356 373 333 
3 356 334 357 
3 358 357 334 
3 334 335 358 
3 359 358 335 
3 335 336 359 
3 360 359 336 
3 336 337 360 
3 337 338 360 
3 361 339 340 
3 340 341 361 
3 362 361 341 
3 342 363 362 
3 341 342 362 
3 343 364 363 
3 342 343 363 
3 344 365 364 
3 343 344 364 
3 345 382 365 
3 344 345 365 
3 383 382 345 
3 345 366 383 
3 384 346 385 
3 346 367 385 
3 347 386 367 
3 346 347 367 
3 348 387 386 
3 347 348 386 
3 387 349 388 
3 389 388 349 
3 349 350 389 
3 368 389 350 
3 390 369 351 
3 351 352 390 
3 352 353 390 
3 353 354 370 
3 393 370 354 
3 354 355 393 
3 0 371 426 
3 373 356 411 
3 374 411 356 
3 356 357 374 
3 375 374 357 
3 357 358 375 
3 376 375 358 
3 358 359 376 
3 359 360 377 
3 359 377 376 
3 360 399 377 
3 360 338 399 
3 338 339 399 
3 339 361 378 
3 361 379 378 
3 361 362 379 
3 362 380 379 
3 362 363 380 
3 364 381 380 
3 363 364 380 
3 381 364 365 
3 365 405 381 
3 405 365 382 
3 384 383 366 
3 389 368 406 
3 407 406 368 
3 368 369 407 
3 390 353 391 
3 353 370 391 
3 392 391 370 
3 370 393 392 
3 426 371 372 
3 372 464 426 
3 372 410 464 
3 372 373 410 
3 373 411 410 
3 411 374 394 
3 374 395 394 
3 395 374 375 
3 375 396 395 
3 376 397 396 
3 375 376 396 
3 377 398 397 
3 376 377 397 
3 377 399 398 
3 400 399 339 
3 339 378 400 
3 401 400 378 
3 378 379 401 
3 379 402 401 
3 379 380 786 
3 403 402 786 
3 404 403 380 
3 380 381 404 
3 405 404 381 
3 405 382 420 
3 382 383 421 
3 382 421 420 
3 421 383 384 
3 384 436 421 
3 384 385 436 
3 385 437 436 
3 367 437 385 
3 367 386 439 
3 386 459 439 
3 386 387 459 
3 440 459 387 
3 440 387 388 
3 388 441 440 
3 388 389 441 
3 389 422 441 
3 389 406 422 
3 407 369 423 
3 369 442 423 
3 390 443 442 
3 369 390 442 
3 390 391 443 
3 424 443 391 
3 408 424 391 
3 391 392 408 
3 392 409 408 
3 392 393 409 
3 395 427 394 
3 396 412 427 
3 395 396 427 
3 397 413 412 
3 396 397 412 
3 398 414 413 
3 397 398 413 
3 398 415 414 
3 398 399 415 
3 399 400 415 
3 400 401 416 
3 401 417 416 
3 401 402 417 
3 418 417 787 
3 402 403 787 
3 419 418 403 
3 403 404 419 
3 435 419 404 
3 404 405 435 
3 420 435 405 
3 438 437 367 
3 439 438 367 
3 406 407 422 
3 408 425 424 
3 408 409 425 
3 409 445 425 
3 464 410 465 
3 410 411 465 
3 411 446 465 
3 411 394 446 
3 394 447 446 
3 394 427 447 
3 412 428 427 
3 413 429 428 
3 412 413 428 
3 414 430 429 
3 413 414 429 
3 414 415 430 
3 415 451 430 
3 489 451 415 
3 415 400 788 
3 400 416 788 
3 431 489 416 
3 416 417 431 
3 417 432 431 
3 433 432 789 
3 417 418 789 
3 434 433 418 
3 418 419 434 
3 435 434 419 
3 435 420 457 
3 421 458 457 
3 420 421 457 
3 436 458 421 
3 437 479 436 
3 422 407 460 
3 407 423 460 
3 443 424 462 
3 425 444 462 
3 424 425 462 
3 425 445 444 
3 426 523 0 
3 428 448 447 
3 427 428 447 
3 429 449 448 
3 428 429 448 
3 430 450 449 
3 429 430 449 
3 430 451 450 
3 489 431 452 
3 432 453 452 
3 431 432 452 
3 454 453 790 
3 432 433 790 
3 455 454 433 
3 433 434 455 
3 456 455 434 
3 434 435 456 
3 435 457 456 
3 458 436 479 
3 479 437 496 
3 497 496 437 
3 437 438 497 
3 480 497 438 
3 438 439 480 
3 459 480 439 
3 440 441 518 
3 441 481 518 
3 441 422 481 
3 422 460 481 
3 460 423 461 
3 423 442 461 
3 443 482 461 
3 442 443 461 
3 462 482 443 
3 462 444 463 
3 445 485 463 
3 444 445 463 
3 426 500 523 
3 426 464 500 
3 446 467 466 
3 465 446 466 
3 446 447 467 
3 447 468 467 
3 448 469 468 
3 447 448 468 
3 449 470 469 
3 448 449 469 
3 449 471 470 
3 449 450 471 
3 450 472 471 
3 450 451 472 
3 489 472 451 
3 489 452 473 
3 452 474 473 
3 452 453 474 
3 475 474 791 
3 453 454 791 
3 476 475 454 
3 454 455 476 
3 477 476 455 
3 455 456 477 
3 457 495 477 
3 456 457 477 
3 478 495 457 
3 457 458 478 
3 458 479 478 
3 480 459 516 
3 517 516 459 
3 459 440 517 
3 440 518 517 
3 460 498 481 
3 460 461 498 
3 483 482 462 
3 484 483 462 
3 462 463 484 
3 463 485 484 
3 464 501 500 
3 464 465 501 
3 465 466 501 
3 466 467 502 
3 467 503 502 
3 467 468 503 
3 486 503 468 
3 468 469 486 
3 487 486 469 
3 469 470 487 
3 470 471 487 
3 488 487 471 
3 471 472 488 
3 472 507 488 
3 472 489 792 
3 489 473 793 
3 490 508 473 
3 473 474 490 
3 491 490 474 
3 475 492 794 
3 474 475 794 
3 476 493 492 
3 475 476 492 
3 476 477 493 
3 477 494 493 
3 495 494 477 
3 478 514 495 
3 496 514 478 
3 478 479 496 
3 496 497 515 
3 480 538 497 
3 480 516 538 
3 518 481 540 
3 519 540 481 
3 481 498 519 
3 542 498 461 
3 543 542 461 
3 461 482 543 
3 482 483 543 
3 484 499 483 
3 522 499 484 
3 484 485 522 
3 501 466 524 
3 502 524 466 
3 504 526 503 
3 503 486 504 
3 505 504 486 
3 486 487 505 
3 506 505 487 
3 487 488 506 
3 507 506 488 
3 489 793 792 
3 490 509 508 
3 510 509 490 
3 490 491 510 
3 492 511 795 
3 491 492 795 
3 493 512 511 
3 492 493 511 
3 494 535 512 
3 493 494 512 
3 513 535 494 
3 494 495 513 
3 514 513 495 
3 496 573 514 
3 515 573 496 
3 497 537 515 
3 497 538 537 
3 517 539 516 
3 498 541 519 
3 498 542 541 
3 483 520 543 
3 499 521 520 
3 483 499 520 
3 522 521 499 
3 523 500 599 
3 500 563 599 
3 501 563 500 
3 502 525 524 
3 502 503 525 
3 526 525 503 
3 526 504 527 
3 528 527 504 
3 504 505 528 
3 529 528 505 
3 505 506 529 
3 506 530 529 
3 506 507 530 
3 507 508 530 
3 552 530 508 
3 508 531 552 
3 508 509 531 
3 532 531 509 
3 509 510 532 
3 511 533 532 
3 510 511 532 
3 512 534 533 
3 511 512 533 
3 512 535 534 
3 513 557 535 
3 558 557 513 
3 513 514 558 
3 514 573 558 
3 573 515 536 
3 515 537 536 
3 517 574 539 
3 517 518 574 
3 575 574 518 
3 518 540 575 
3 540 519 560 
3 541 560 519 
3 520 544 543 
3 545 544 520 
3 520 521 545 
3 562 545 521 
3 521 522 562 
3 501 524 563 
3 524 525 546 
3 547 546 525 
3 525 526 547 
3 548 547 526 
3 526 527 548 
3 549 548 527 
3 527 528 549 
3 550 549 528 
3 528 529 550 
3 529 530 550 
3 530 551 550 
3 552 551 530 
3 553 552 531 
3 531 532 553 
3 554 553 532 
3 533 555 554 
3 532 533 554 
3 534 556 555 
3 533 534 555 
3 535 572 556 
3 534 535 556 
3 535 557 572 
3 536 537 559 
3 537 538 559 
3 538 516 611 
3 516 539 611 
3 539 574 612 
3 560 575 540 
3 541 542 577 
3 597 577 542 
3 542 543 597 
3 543 544 597 
3 544 545 561 
3 562 561 545 
3 599 0 523 
3 563 524 581 
3 524 546 581 
3 546 547 564 
3 547 548 565 
3 547 565 564 
3 566 565 548 
3 548 549 566 
3 567 566 549 
3 549 550 567 
3 550 551 567 
3 587 551 552 
3 552 553 587 
3 553 568 587 
3 553 569 568 
3 553 554 569 
3 554 570 569 
3 554 555 570 
3 556 571 570 
3 555 556 570 
3 556 572 571 
3 557 593 572 
3 558 594 593 
3 557 558 593 
3 558 573 594 
3 573 536 559 
3 559 538 595 
3 538 611 595 
3 539 612 611 
3 574 575 596 
3 575 560 613 
3 560 576 613 
3 576 560 541 
3 541 577 576 
3 597 544 578 
3 544 561 578 
3 579 578 561 
3 580 579 561 
3 561 562 580 
3 563 633 599 
3 563 581 633 
3 582 581 546 
3 546 564 582 
3 564 583 582 
3 565 584 583 
3 564 565 583 
3 566 585 584 
3 565 566 584 
3 567 586 585 
3 566 567 585 
3 567 551 586 
3 604 586 551 
3 551 587 604 
3 587 568 588 
3 568 569 588 
3 569 589 588 
3 569 570 589 
3 590 589 570 
3 591 590 570 
3 570 571 591 
3 592 591 571 
3 571 572 592 
3 593 592 572 
3 573 628 610 
3 594 573 610 
3 573 559 628 
3 574 596 612 
3 575 613 596 
3 576 577 614 
3 577 630 614 
3 577 597 630 
3 615 597 578 
3 598 615 578 
3 578 579 598 
3 598 579 580 
3 580 617 598 
3 0 599 657 
3 633 581 634 
3 600 634 581 
3 581 582 600 
3 583 618 582 
3 584 601 618 
3 583 584 618 
3 585 602 601 
3 584 585 601 
3 586 603 602 
3 585 586 602 
3 586 604 603 
3 604 587 605 
3 587 606 605 
3 587 588 606 
3 588 607 606 
3 588 589 607 
3 608 607 589 
3 589 590 608 
3 609 608 590 
3 590 591 609 
3 626 609 591 
3 591 592 626 
3 627 626 592 
3 592 593 627 
3 594 610 627 
3 593 594 627 
3 629 628 559 
3 559 595 629 
3 611 629 595 
3 611 612 649 
3 596 650 612 
3 597 654 630 
3 597 615 654 
3 598 616 615 
3 598 617 616 
3 633 657 599 
3 600 582 635 
3 582 636 635 
3 582 618 636 
3 601 619 618 
3 602 620 619 
3 601 602 619 
3 603 621 620 
3 602 603 620 
3 603 604 621 
3 604 640 621 
3 604 605 640 
3 622 605 606 
3 606 607 622 
3 607 623 622 
3 624 623 607 
3 607 608 624 
3 625 624 608 
3 608 609 625 
3 626 625 609 
3 610 647 627 
3 628 647 610 
3 629 672 628 
3 629 611 648 
3 649 648 611 
3 649 612 650 
3 596 651 650 
3 613 652 651 
3 596 613 651 
3 613 576 652 
3 576 653 652 
3 576 614 653 
3 654 615 631 
3 616 632 631 
3 615 616 631 
3 617 656 632 
3 616 617 632 
3 600 658 634 
3 600 635 658 
3 619 637 636 
3 618 619 636 
3 620 638 637 
3 619 620 637 
3 621 639 638 
3 620 621 638 
3 621 640 639 
3 640 605 665 
3 641 665 605 
3 605 622 641 
3 623 642 641 
3 622 623 641 
3 643 642 623 
3 623 624 643 
3 644 643 624 
3 624 625 644 
3 645 644 625 
3 625 626 645 
3 627 646 645 
3 626 627 645 
3 627 647 646 
3 647 628 685 
3 628 672 685 
3 648 672 629 
3 650 651 707 
3 689 653 614 
3 614 630 689 
3 630 654 689 
3 654 631 673 
3 655 673 631 
3 631 632 655 
3 632 656 655 
3 633 714 657 
3 693 714 633 
3 633 634 693 
3 634 658 693 
3 635 659 658 
3 635 636 659 
3 636 660 659 
3 637 661 660 
3 636 637 660 
3 638 662 661 
3 637 638 661 
3 638 663 662 
3 638 639 663 
3 639 664 663 
3 639 640 664 
3 665 664 640 
3 665 641 666 
3 641 667 666 
3 641 642 667 
3 668 667 642 
3 642 643 668 
3 669 668 643 
3 643 644 669 
3 670 669 644 
3 644 645 670 
3 646 684 670 
3 645 646 670 
3 671 684 646 
3 646 647 671 
3 647 685 671 
3 672 648 686 
3 706 686 648 
3 648 649 706 
3 687 706 649 
3 649 650 687 
3 707 687 650 
3 707 651 708 
3 651 688 708 
3 651 652 688 
3 652 709 688 
3 652 653 709 
3 653 689 710 
3 654 690 689 
3 654 673 690 
3 673 655 674 
3 656 692 674 
3 655 656 674 
3 657 1 0 
3 714 1 657 
3 694 693 658 
3 658 659 694 
3 659 695 694 
3 659 660 695 
3 675 695 660 
3 660 661 675 
3 676 675 661 
3 661 662 676 
3 662 663 676 
3 677 676 663 
3 663 664 677 
3 664 699 677 
3 665 678 699 
3 664 665 699 
3 665 666 678 
3 679 678 666 
3 666 667 679 
3 680 679 667 
3 668 681 680 
3 667 668 680 
3 669 682 681 
3 668 669 681 
3 669 670 682 
3 670 683 682 
3 684 683 670 
3 671 704 684 
3 685 704 671 
3 672 705 685 
3 686 705 672 
3 709 653 710 
3 690 673 711 
3 674 691 711 
3 673 674 711 
3 692 691 674 
3 696 717 695 
3 695 675 696 
3 697 696 675 
3 675 676 697 
3 698 697 676 
3 676 677 698 
3 699 698 677 
3 678 679 700 
3 701 700 679 
3 679 680 701 
3 681 702 701 
3 680 681 701 
3 682 703 702 
3 681 682 702 
3 683 726 703 
3 682 683 703 
3 727 726 683 
3 683 684 727 
3 704 727 684 
3 685 745 704 
3 705 745 685 
3 686 728 705 
3 686 706 728 
3 687 707 706 
3 708 688 747 
3 709 747 688 
3 689 748 729 
3 710 689 729 
3 730 748 689 
3 689 690 730 
3 690 711 730 
3 691 712 711 
3 713 712 691 
3 691 692 713 
3 693 715 714 
3 716 715 693 
3 693 694 716 
3 694 695 716 
3 717 716 695 
3 717 696 718 
3 719 718 696 
3 696 697 719 
3 720 719 697 
3 697 698 720 
3 698 721 720 
3 698 699 721 
3 699 678 721 
3 737 721 678 
3 678 722 737 
3 678 700 722 
3 723 722 700 
3 700 701 723 
3 702 724 723 
3 701 702 723 
3 703 725 724 
3 702 703 724 
3 703 726 725 
3 727 704 744 
3 704 745 744 
3 706 27 728 
3 706 746 27 
3 706 707 746 
3 29 746 707 
3 707 708 29 
3 747 29 708 
3 747 709 31 
3 709 710 31 
3 729 31 710 
3 711 731 730 
3 732 731 711 
3 711 712 732 
3 712 713 732 
3 750 732 713 
3 714 715 2 
3 4 715 716 
3 733 4 716 
3 716 717 733 
3 734 733 717 
3 717 718 734 
3 735 734 718 
3 718 719 735 
3 736 735 719 
3 719 720 736 
3 720 721 736 
3 721 13 736 
3 737 13 721 
3 738 737 722 
3 722 723 738 
3 739 738 723 
3 724 740 739 
3 723 724 739 
3 725 741 740 
3 724 725 740 
3 726 742 741 
3 725 726 741 
3 727 743 742 
3 726 727 742 
3 24 743 727 
3 727 744 24 
3 745 705 25 
3 705 26 25 
3 705 728 26 
3 728 27 26 
3 748 730 34 
3 730 731 34 
3 731 732 749 
3 750 749 732 
3 750 713 692 
3 38 750 692 
3 55 38 796 
3 55 796 755 
3 55 755 756 
3 55 756 757 
3 55 757 797 
3 562 798 799 
3 562 800 798 
3 562 773 800 
3 562 768 767 
3 245 761 762 
3 245 762 763 
3 245 763 764 
3 445 801 802 
3 445 766 801 
3 317 766 803 
3 355 317 803 
3 355 409 393 
3 1 714 39 
3 2 39 714 
3 715 4 2 
3 4 733 6 
3 8 6 733 
3 733 734 8 
3 10 8 734 
3 734 735 10 
3 12 10 735 
3 735 736 12 
3 736 13 12 
3 13 737 14 
3 16 14 737 
3 737 738 16 
3 18 16 738 
3 738 739 18 
3 739 20 18 
3 739 740 20 
3 741 22 20 
3 740 741 20 
3 742 23 22 
3 741 742 22 
3 742 743 23 
3 25 24 744 
3 744 745 25 
3 25 26 51 
3 746 28 27 
3 29 28 746 
3 29 747 30 
3 31 30 747 
3 31 729 32 
3 729 33 32 
3 729 748 33 
3 34 33 748 
3 34 731 36 
3 731 749 36 
3 37 36 749 
3 38 37 749 
3 749 750 38 
3 148 769 751 
3 753 751 752 
3 751 754 804 
3 754 751 753 
3 755 692 656 
3 755 656 756 
3 617 756 656 
3 756 617 757 
3 580 757 617 
3 757 580 758 
3 562 799 580 
3 74 55 805 
3 758 759 797 
3 760 807 806 
3 74 805 806 
3 148 113 769 
3 113 807 808 
3 245 809 761 
3 754 809 804 
3 770 522 771 
3 770 761 768 
3 762 810 772 
3 485 810 771 
3 763 445 802 
3 445 763 772 
3 283 764 765 
3 764 283 245 
3 317 765 766 
3 765 317 283 
3 766 445 409 
3 753 767 754 
3 768 761 767 
3 754 767 761 
3 769 752 751 
3 769 113 808 
3 761 771 762 
3 771 761 770 
3 522 768 562 
3 768 522 770 
3 762 772 763 
3 485 771 522 
3 445 772 485 
3 752 773 753 
3 774 753 773 
3 774 562 767 
3 18 775 17 
3 19 775 20 
3 776 46 17 
3 776 19 47 
3 44 777 81 
3 60 81 778 
3 777 778 81 
3 778 45 60 
3 779 62 46 
3 779 47 63 
3 81 780 781 
3 780 81 60 
3 782 83 62 
3 782 63 84 
3 781 99 81 
3 780 100 117 
3 783 101 83 
3 783 84 102 
3 784 120 119 
3 101 784 119 
3 785 138 137 
3 119 785 137 
3 379 786 402 
3 403 786 380 
3 787 417 402 
3 787 403 418 
3 415 788 489 
3 788 416 489 
3 789 432 417 
3 789 418 433 
3 790 453 432 
3 790 433 454 
3 791 474 453 
3 791 454 475 
3 472 792 507 
3 793 473 508 
3 794 492 491 
3 474 794 491 
3 793 507 792 
3 507 793 508 
3 795 511 510 
3 491 795 510 
3 796 38 692 
3 796 692 755 
3 797 757 758 
3 798 758 799 
3 758 798 759 
3 800 759 798 
3 759 800 760 
3 773 760 800 
3 760 773 752 
3 801 765 802 
3 764 802 765 
3 801 766 765 
3 803 766 409 
3 355 803 409 
3 751 804 207 
3 799 758 580 
3 805 55 759 
3 797 759 55 
3 113 74 807 
3 806 807 74 
3 759 760 805 
3 806 805 760 
3 760 752 807 
3 808 807 752 
3 809 754 761 
3 809 245 804 
3 207 804 245 
3 810 485 772 
3 810 762 771 
3 763 802 764 
3 769 808 752 
